<?xml version="1.0" encoding="UTF-8"?><svg viewBox="0 0 65 22" xmlns="http://www.w3.org/2000/svg" xmlns:xlink="http://www.w3.org/1999/xlink"><style>:root>svg{display:none}:root>svg:target{display:block}</style><svg viewBox="0 0 16 16" id="down-semibold_icon" xmlns="http://www.w3.org/2000/svg"><defs><path id="aa" d="M8 8.5l3-3 1 1-4 4-4-4 1-1z"/></defs><g fill="none" fill-rule="evenodd"><mask id="ab" fill="#fff"><use xlink:href="#aa"/></mask><g mask="url(#ab)" fill="#000" fill-opacity=".9" opacity=".9"><rect width="16" height="16" rx="2"/></g></g></svg><svg viewBox="0 0 65 22" id="logo__legacy_icon" xmlns="http://www.w3.org/2000/svg"><g fill="none" fill-rule="evenodd"><path d="M61.71 14.536c-.071-1.327-1.006-2.413-2.514-2.413-1.532 0-2.562.989-2.73 2.413h5.244zm-6.68 5.839c-1.27-1.158-1.915-2.703-1.915-4.609 0-1.785.574-3.281 1.723-4.488 1.15-1.23 2.659-1.833 4.502-1.833 1.748 0 3.112.627 4.142 1.858 1.03 1.23 1.557 2.726 1.557 4.511v.893h-8.572c.358 1.64 1.891 2.51 3.998 2.51 1.341 0 2.61-.363 3.832-1.062v2.726c-1.078.82-2.587 1.231-4.55 1.231-1.868 0-3.448-.579-4.717-1.737zM41.224 21.96V8.49l3.42-3.44v9.161l4.173-4.449h4.196l-5.264 5.5 6.09 6.698h-4.416l-4.78-5.255v5.255h-3.419zm-6.29 0v-7.512l3.42-3.287v10.8h-3.42zm-9.629 0V9.762h3.42v2.69c1.057-3.15 4.61-2.682 4.61-2.682v3.373s-4.61-.345-4.61 3.431v5.386h-3.42zm-19.604.098L0 4.848h3.882l3.493 11.539L11.208 4.8h2.716l3.857 11.587 3.494-11.538h3.808l-5.725 17.21h-3.08l-3.712-11.417-3.784 11.416H5.7z" fill="#FFF"/><path fill="#009949" d="M34 7.727L36.222 10 46 0h-4.444"/><path d="M30.444 4.09L36.222 10l2.222-2.273-3.555-3.636h-4.445z" fill="#9FD326"/></g></svg><svg viewBox="0 0 16 16" id="settigns-gearwheel_icon" xmlns="http://www.w3.org/2000/svg"><defs><path d="M11 10.918l.293.16.218.12 1.26.691c.065.036.149.014.187-.048l1.023-1.685a.12.12 0 00.014-.096.129.129 0 00-.065-.079L12.67 9.29l-.51-.28.038-.318.028-.24a3.898 3.898 0 000-.91l-.063-.557.292-.159.218-.118 1.258-.69a.131.131 0 00.063-.08.126.126 0 00-.014-.1l-1.024-1.684a.131.131 0 00-.08-.06.14.14 0 00-.104.015l-1.26.69-.51.281-.273-.19-.206-.145a4.163 4.163 0 00-.825-.451l-.538-.228V2.127c0-.069-.062-.127-.14-.127H6.98c-.08 0-.139.055-.139.127V4.07l-.31.128-.23.095a4.311 4.311 0 00-.825.456l-.477.333-.292-.16-.218-.12-1.26-.691a.141.141 0 00-.187.048L2.02 5.844a.12.12 0 00-.014.096c.009.033.031.06.065.079l1.259.691.51.28-.038.318-.028.24a3.898 3.898 0 000 .91l.063.557-.292.159-.218.118-1.258.69a.131.131 0 00-.063.08.126.126 0 00.014.1l1.024 1.684c.017.03.046.05.08.06a.14.14 0 00.104-.015l1.26-.69.51-.281.273.19.204.143c.256.18.532.331.827.453l.538.228V13.87c0 .072.062.13.14.13h2.047c.036 0 .07-.013.095-.036a.123.123 0 00.039-.091v-1.94l.306-.129.235-.099c.256-.106.5-.236.73-.388l.57-.4zm-.819 1.666v1.304c.001.296-.122.58-.342.79-.22.209-.517.325-.822.322H6.985c-.642.002-1.164-.494-1.167-1.11v-1.306a5.32 5.32 0 01-.874-.483l-1.18.651c-.268.15-.588.191-.887.113a1.149 1.149 0 01-.704-.52L1.158 10.66a1.072 1.072 0 01-.119-.845c.08-.286.274-.53.542-.678l1.182-.654a4.872 4.872 0 010-.967l-1.177-.651a1.116 1.116 0 01-.547-.68 1.064 1.064 0 01.12-.844l1.016-1.685c.32-.532 1.031-.716 1.588-.409l1.183.653a5.32 5.32 0 01.874-.485V2.11c0-.616.518-1.11 1.164-1.11h2.033c.642 0 1.165.496 1.165 1.11v1.306c.309.134.602.296.874.483l1.18-.652c.268-.15.588-.19.887-.112.3.077.554.267.704.52l1.015 1.684c.156.255.198.56.119.845-.08.286-.274.53-.542.678l-1.182.654c.032.322.032.646 0 .967l1.177.651c.27.147.467.392.547.68.08.287.036.593-.12.844l-1.016 1.684c-.32.533-1.031.716-1.588.41l-1.181-.652c-.276.188-.57.35-.875.484zM8 11a3 3 0 110-6 3 3 0 010 6zm0-1a2 2 0 100-4 2 2 0 000 4z" id="ca"/></defs><g fill="none" fill-rule="evenodd"><mask id="cb" fill="#fff"><use xlink:href="#ca"/></mask><g mask="url(#cb)" fill="#FFF" fill-opacity=".9" opacity=".9"><rect width="16" height="16" rx="2"/></g></g></svg><svg viewBox="0 0 16 16" id="user-small_icon" xmlns="http://www.w3.org/2000/svg"><defs><path d="M13 14h-1a4 4 0 10-8 0H3a5 5 0 0110 0zm-2-9a3 3 0 01-3 3C6.35 8 5 6.65 5 5s1.35-3 3-3a3 3 0 013 3zm-1 0a2 2 0 00-2-2c-1.098 0-2 .902-2 2 0 1.098.902 2 2 2a2 2 0 002-2z" id="da"/></defs><g fill="none" fill-rule="evenodd"><mask id="db" fill="#fff"><use xlink:href="#da"/></mask><g mask="url(#db)" fill="#FFF" fill-opacity=".9" opacity=".9"><rect width="16" height="16" rx="2"/></g></g></svg></svg>